grf
version=1
nRows=7
nColumns=37
inDegrees=no
endheader
time	ground_force_1_vx	ground_force_1_vy	ground_force_1_vz	ground_force_1_px	ground_force_1_py	ground_force_1_pz	ground_moment_1_mx	ground_moment_1_my	ground_moment_1_mz	ground_force_2_vx	ground_force_2_vy	ground_force_2_vz	ground_force_2_px	ground_force_2_py	ground_force_2_pz	ground_moment_2_mx	ground_moment_2_my	ground_moment_2_mz	ground_force_3_vx	ground_force_3_vy	ground_force_3_vz	ground_force_3_px	ground_force_3_py	ground_force_3_pz	ground_moment_3_mx	ground_moment_3_my	ground_moment_3_mz	ground_force_4_vx	ground_force_4_vy	ground_force_4_vz	ground_force_4_px	ground_force_4_py	ground_force_4_pz	ground_moment_4_mx	ground_moment_4_my	ground_moment_4_mz
      4.24000000	      0.00000000	     -0.00000000	      0.00000000	      0.00000000	      0.00000000	      0.00000000	      0.00000000	      0.00000000	      0.00000000	     -3.69232893	      2.35698390	   -713.33190918	   -249.61408238	  -1063.97828211	      0.00000000	     -0.00000000	     -0.00000000	  -1059.80494434	      0.00000000	     -0.00000000	      0.00000000	      0.00000000	      0.00000000	      0.00000000	      0.00000000	      0.00000000	      0.00000000	    -35.11118558	     15.99146959	     76.58786011	    599.33265037	   -560.84058197	      0.00000000	      0.00000000	     -0.00000000	    -53.12371992
      4.25000000	      0.00000000	     -0.00000000	      0.00000000	      0.00000000	      0.00000000	      0.00000000	      0.00000000	      0.00000000	      0.00000000	     -2.43772578	     -0.93722546	   -731.30999756	   -252.05154091	  -1062.65731177	      0.00000000	      0.00000000	     -0.00000000	   -950.52011613	      0.00000000	     -0.00000000	      0.00000000	      0.00000000	      0.00000000	      0.00000000	      0.00000000	      0.00000000	      0.00000000	    -34.96683743	     16.07203980	     77.20191956	    601.07375430	   -557.98483784	      0.00000000	      0.00000000	     -0.00000000	   -319.36192095
      4.26000000	      0.00000000	     -0.00000000	      0.00000000	      0.00000000	      0.00000000	      0.00000000	      0.00000000	      0.00000000	      0.00000000	     -1.21462965	     -3.84403610	   -751.39489746	   -254.38127688	  -1061.63366100	      0.00000000	      0.00000000	     -0.00000000	   -573.31250145	      0.00000000	     -0.00000000	      0.00000000	      0.00000000	      0.00000000	      0.00000000	      0.00000000	      0.00000000	      0.00000000	    -34.70988325	     15.98180979	     75.32087708	    605.50549083	   -564.66832711	      0.00000000	     -0.00000000	     -0.00000000	   -155.29318645
      4.27000000	      0.00000000	     -0.00000000	      0.00000000	      0.00000000	      0.00000000	      0.00000000	      0.00000000	      0.00000000	      0.00000000	     -2.40868378	     -7.84347534	   -772.53948975	   -255.62344063	  -1061.12165498	      0.00000000	      0.00000000	     -0.00000000	    -71.51364563	      0.00000000	     -0.00000000	      0.00000000	      0.00000000	      0.00000000	      0.00000000	      0.00000000	      0.00000000	      0.00000000	    -34.64301922	     16.17181699	     77.12084198	    597.35033442	   -560.32091704	      0.00000000	      0.00000000	     -0.00000000	   -139.05988257
      4.28000000	      0.00000000	     -0.00000000	      0.00000000	      0.00000000	      0.00000000	      0.00000000	      0.00000000	      0.00000000	      0.00000000	     -2.64365745	    -11.95477390	   -792.04827881	   -256.78676456	  -1060.85411745	      0.00000000	      0.00000000	     -0.00000000	   -168.05513715	      0.00000000	     -0.00000000	      0.00000000	      0.00000000	      0.00000000	      0.00000000	      0.00000000	      0.00000000	      0.00000000	    -34.90004205	     16.44135017	     75.41060638	    602.85384546	   -562.86797443	      0.00000000	      0.00000000	     -0.00000000	   -165.19181439
      4.29000000	      0.00000000	     -0.00000000	      0.00000000	      0.00000000	      0.00000000	      0.00000000	      0.00000000	      0.00000000	      0.00000000	     -2.79844046	    -15.54243660	   -807.06066895	   -256.53797349	  -1059.53101223	      0.00000000	      0.00000000	     -0.00000000	   -228.72795758	      0.00000000	     -0.00000000	      0.00000000	      0.00000000	      0.00000000	      0.00000000	      0.00000000	      0.00000000	      0.00000000	    -34.97826245	     16.05954857	     75.84956360	    603.33139171	   -566.35297386	      0.00000000	      0.00000000	      0.00000000	     74.43499236
      4.30000000	      0.00000000	     -0.00000000	      0.00000000	      0.00000000	      0.00000000	      0.00000000	      0.00000000	      0.00000000	      0.00000000	     -3.84697556	    -16.09908104	   -815.22888184	   -255.96676128	  -1059.32537534	      0.00000000	      0.00000000	     -0.00000000	   -582.31343495	      0.00000000	     -0.00000000	      0.00000000	      0.00000000	      0.00000000	      0.00000000	      0.00000000	      0.00000000	      0.00000000	    -35.00049452	     15.94698640	     75.41110229	    605.85042454	   -563.83990868	      0.00000000	      0.00000000	     -0.00000000	    -87.90679852
